<?xml version="1.0" encoding="iso-8859-1"?>
<!-- Generator: Adobe Illustrator 19.0.0, SVG Export Plug-In . SVG Version: 6.00 Build 0)  -->
<svg version="1.1" id="Capa_1" xmlns="http://www.w3.org/2000/svg" xmlns:xlink="http://www.w3.org/1999/xlink" x="0px" y="0px"
	 viewBox="0 0 512.001 512.001" style="enable-background:new 0 0 512.001 512.001;" xml:space="preserve">
<g>
	<g>
		<path d="M232.501,270c20.678,0,37.5-16.822,37.5-37.5V200h7.5c12.407,0,22.5-10.094,22.5-22.5s-10.093-22.5-22.5-22.5h-7.5V7.5
			c0-4.143-3.358-7.5-7.5-7.5c-4.142,0-7.5,3.357-7.5,7.5V185h-46.048c-2.378-8.375-8.63-15.132-16.691-18.204
			c10.869-9.626,17.739-23.67,17.739-39.296v-30c0-28.948-23.551-52.5-52.5-52.5c-28.949,0-52.5,23.552-52.5,52.5v30
			c0,15.626,6.87,29.67,17.739,39.296c-7.974,3.039-14.179,9.684-16.614,17.933c-42.52-3.268-76.125-38.886-76.125-82.229
			c0-4.143-3.358-7.5-7.5-7.5s-7.5,3.357-7.5,7.5c0,51.239,39.729,93.372,90,97.214V255h-7.5c-4.142,0-7.5,3.357-7.5,7.5
			s3.358,7.5,7.5,7.5h7.5v15h-7.5c-12.407,0-22.5,10.094-22.5,22.5v75c0,12.406,10.093,22.5,22.5,22.5s22.5-10.094,22.5-22.5
			v-53.308c7.882,8.054,18.324,13.586,30,15.264v60.759l-43.726,65.104c-0.831,1.236-1.274,2.692-1.274,4.182v30
			c0,4.143,3.358,7.5,7.5,7.5c4.142,0,7.5-3.357,7.5-7.5v-27.715l43.726-65.104c0.831-1.236,1.274-2.692,1.274-4.182V345h97.5
			c4.136,0,7.5,3.364,7.5,7.5c0,3.265-2.087,6.131-5.198,7.135l-79.609,25.729c-3.096,1.001-5.193,3.883-5.193,7.137v30
			c0,4.143,3.358,7.5,7.5,7.5c4.142,0,7.5-3.357,7.5-7.5v-24.542l74.412-24.049c9.324-3.01,15.588-11.613,15.588-21.41
			c0-12.406-10.093-22.5-22.5-22.5h-52.5v-60H232.501z M270.001,170h7.5c4.136,0,7.5,3.364,7.5,7.5s-3.364,7.5-7.5,7.5h-7.5V170z
			 M210.001,200h45v32.5c0,12.406-10.093,22.5-22.5,22.5h-22.5V200z M105.001,382.5c0,4.136-3.364,7.5-7.5,7.5s-7.5-3.364-7.5-7.5
			v-23.79c2.347,0.833,4.871,1.29,7.5,1.29c2.629,0,5.153-0.458,7.5-1.29V382.5z M105.001,337.5c0,4.136-3.364,7.5-7.5,7.5
			s-7.5-3.364-7.5-7.5v-30c0-4.136,3.364-7.5,7.5-7.5h7.5V337.5z M120.001,97.5c0-20.678,16.822-37.5,37.5-37.5
			s37.5,16.822,37.5,37.5v2.5h-15.14c-5.652-6.324-13.746-10-22.36-10s-16.708,3.676-22.36,10h-15.14V97.5z M120.001,127.5V115
			h18.792c2.502,0,4.84-1.248,6.232-3.327c2.797-4.179,7.461-6.673,12.477-6.673c5.016,0,9.679,2.494,12.477,6.673
			c1.392,2.079,3.729,3.327,6.232,3.327h18.79v12.5c0,20.678-16.822,37.5-37.5,37.5S120.001,148.178,120.001,127.5z M195.001,330
			h-37.5c-18.11,0-33.261-12.904-36.745-30h74.245V330z M195.001,285h-75v-15h75V285z M195.001,255h-75v-62.5
			c0-6.893,5.607-12.5,12.5-12.5h50c6.893,0,12.5,5.607,12.5,12.5V255z"/>
	</g>
</g>
<g>
	<g>
		<circle cx="142.501" cy="202.5" r="7.5"/>
	</g>
</g>
<g>
	<g>
		<circle cx="172.501" cy="202.5" r="7.5"/>
	</g>
</g>
<g>
	<g>
		<path d="M489.501,165c-4.142,0-7.5,3.357-7.5,7.5v41.894l-27.803,27.803c-1.407,1.407-2.197,3.314-2.197,5.304v257
			c0,4.143,3.358,7.5,7.5,7.5c4.142,0,7.5-3.357,7.5-7.5V250.606l27.803-27.803c1.407-1.407,2.197-3.314,2.197-5.304v-45
			C497.001,168.357,493.643,165,489.501,165z"/>
	</g>
</g>
<g>
	<g>
		<path d="M489.501,0c-4.142,0-7.5,3.357-7.5,7.5v135c0,4.143,3.358,7.5,7.5,7.5c4.142,0,7.5-3.357,7.5-7.5V7.5
			C497.001,3.357,493.643,0,489.501,0z"/>
	</g>
</g>
<g>
	<g>
		<path d="M434.804,439.196l-27.803-27.802V7.5c0-4.143-3.358-7.5-7.5-7.5c-4.142,0-7.5,3.357-7.5,7.5v176.893l-75-75V7.5
			c0-4.143-3.358-7.5-7.5-7.5c-4.142,0-7.5,3.357-7.5,7.5v105c0,1.989,0.79,3.896,2.197,5.304l87.803,87.803V414.5
			c0,1.989,0.79,3.896,2.197,5.304l27.803,27.802V504.5c0,4.143,3.358,7.5,7.5,7.5c4.142,0,7.5-3.357,7.5-7.5v-60
			C437.001,442.511,436.211,440.604,434.804,439.196z"/>
	</g>
</g>
<g>
</g>
<g>
</g>
<g>
</g>
<g>
</g>
<g>
</g>
<g>
</g>
<g>
</g>
<g>
</g>
<g>
</g>
<g>
</g>
<g>
</g>
<g>
</g>
<g>
</g>
<g>
</g>
<g>
</g>
</svg>
