<svg id="Layer_1" data-name="Layer 1" xmlns="http://www.w3.org/2000/svg" viewBox="0 0 101 101"><title>Artboard 2 copy 19</title><path d="M51.38,67.66h0a7.63,7.63,0,1,0,5.41,2.23A7.64,7.64,0,0,0,51.38,67.66Zm0,12.27a4.64,4.64,0,0,1,0-9.27h0a4.64,4.64,0,1,1,0,9.27Z"/><path d="M51.38,48.92A25.31,25.31,0,0,0,31.1,59.18,1.5,1.5,0,0,0,33.51,61a22.19,22.19,0,0,1,35.24-.65,1.5,1.5,0,1,0,2.35-1.87A25.08,25.08,0,0,0,51.38,48.92Z"/><path d="M51.38,32.84a41.23,41.23,0,0,0-31.85,15,1.5,1.5,0,1,0,2.31,1.91A38.31,38.31,0,0,1,80.31,49a1.5,1.5,0,0,0,2.27-2A41.28,41.28,0,0,0,51.38,32.84Z"/><path d="M92.76,37a55.55,55.55,0,0,0-83.31.66,1.5,1.5,0,0,0,2.27,2A52.55,52.55,0,0,1,90.53,39a1.5,1.5,0,1,0,2.23-2Z"/></svg>