<svg id="Layer_1" data-name="Layer 1" xmlns="http://www.w3.org/2000/svg" viewBox="0 0 101 101"><title>Artboard 2 copy 18</title><path d="M51.5,6.39A42.52,42.52,0,1,0,94,48.91,42.57,42.57,0,0,0,51.5,6.39Zm0,82A39.52,39.52,0,1,1,91,48.91,39.57,39.57,0,0,1,51.5,88.44Z"/><path d="M59.86,27a1.53,1.53,0,0,0-.36,0h-24A1.5,1.5,0,0,0,34,28.5v43A1.5,1.5,0,0,0,35.5,73h12A1.5,1.5,0,0,0,49,71.5V56H59.06a14.48,14.48,0,0,0,.79-29Zm11,15.78A11.63,11.63,0,0,1,59.06,53H47.5A1.5,1.5,0,0,0,46,54.5V70H37V30H59.08a1.48,1.48,0,0,0,.32,0A11.49,11.49,0,0,1,70.81,42.82Z"/><path d="M59.5,35h-12A1.5,1.5,0,0,0,46,36.5v8A1.5,1.5,0,0,0,47.5,46h12A1.5,1.5,0,0,0,61,44.5v-8A1.5,1.5,0,0,0,59.5,35ZM58,43H49V38h9Z"/></svg>