<svg id="Слой_1" data-name="Слой 1" xmlns="http://www.w3.org/2000/svg" viewBox="0 0 101 101"><title>log_Монтажная область 25</title><path d="M88.43,81.83,55.13,15.21a1.5,1.5,0,0,0-2.68,0L43.9,32.29,32,8.5a1.5,1.5,0,0,0-2.68,0L18.14,30.86v0L2.66,61.83A1.5,1.5,0,0,0,4,64H28L19.14,81.83A1.5,1.5,0,0,0,20.48,84H87.08a1.5,1.5,0,0,0,1.34-2.17ZM53.78,19.23l14.7,29.42c-5.95,2.4-9,.62-12.55-1.46C53.4,45.69,50.52,44,46.5,44a13.44,13.44,0,0,0-5.7,1.21ZM30.67,12.52,39,29.24c-3.29,1.3-4.83.37-6.76-.8a9.51,9.51,0,0,0-5.16-1.79,10.6,10.6,0,0,0-3.92.82ZM6.43,61,20.71,32.44c.75-.62,3.54-2.78,6.4-2.78A6.82,6.82,0,0,1,30.71,31c2.15,1.3,4.82,2.91,9.66.92l1.86,3.71L29.55,61ZM22.9,81l8.81-17.63a1.49,1.49,0,0,0,.2-.4l4.85-9.7a1.45,1.45,0,0,0,.11-.17A10.69,10.69,0,0,1,46.5,47c3.2,0,5.49,1.35,7.92,2.77,3.73,2.19,8,4.67,15.42,1.57L84.66,81Z"/></svg>