<svg id="Слой_1" data-name="Слой 1" xmlns="http://www.w3.org/2000/svg" viewBox="0 0 101 101"><title>log_Монтажная область 22</title><path d="M52.07,28.07l0-3.19a11,11,0,1,0-3,0l0,3.13a34.93,34.93,0,1,0,3,0ZM42.5,14A8,8,0,1,1,52,21.85l0-4.36A1.5,1.5,0,0,0,50.5,16h0A1.5,1.5,0,0,0,49,17.51l0,4.35A8,8,0,0,1,42.5,14ZM50,95A32,32,0,1,1,82,63,32,32,0,0,1,50,95Z"/><path d="M58.9,55.49l0,0,0-.07a1.48,1.48,0,0,0-.75-.75l-.07,0,0,0-23-8.08A1.5,1.5,0,0,0,33,48.4l8.08,23,0,0,0,.07a1.48,1.48,0,0,0,.75.75l.07,0,0,0,23,8.08a1.48,1.48,0,0,0,.5.08,1.5,1.5,0,0,0,1.42-2Zm-4.16,1.12L43.15,68.19,36.9,50.35Zm-9.46,13.7L56.86,58.73l6.25,17.84Z"/></svg>